<svg version="1.1" xmlns="http://www.w3.org/2000/svg" viewBox="0 0 762 773" width="762" height="773">
  <!-- svg-source:excalidraw -->
  
  <defs>
    <style>
      @font-face {
        font-family: "Virgil";
        src: url("https://excalidraw.com/Virgil.woff2");
      }
      @font-face {
        font-family: "Cascadia";
        src: url("https://excalidraw.com/Cascadia.woff2");
      }
    </style>
  </defs>
  <rect x="0" y="0" width="762" height="773" fill="#ffffff"></rect><g stroke-linecap="round"><g transform="translate(336 266.5) rotate(0 0.2466949988156557 218.4099978591036)"><path d="M-1.14 -0.87 C-0.93 71.69, 1.29 363.37, 1.64 436.1 M0.46 1.28 C0.46 73.99, 0.03 365.14, 0.5 437.69" stroke="#000000" stroke-width="1" fill="none"></path></g></g><g transform="translate(202 208.5) rotate(0 32.5 12.5)"><text x="0" y="18" font-family="Virgil, Segoe UI Emoji" font-size="20px" fill="#000000" text-anchor="start" style="white-space: pre;" direction="ltr">source</text></g><g transform="translate(380 206.5) rotate(0 34 12.5)"><text x="0" y="18" font-family="Virgil, Segoe UI Emoji" font-size="20px" fill="#000000" text-anchor="start" style="white-space: pre;" direction="ltr">target</text></g><g transform="translate(597 204.5) rotate(0 68 12.5)"><text x="0" y="18" font-family="Virgil, Segoe UI Emoji" font-size="20px" fill="#000000" text-anchor="start" style="white-space: pre;" direction="ltr">target result</text></g><g stroke-linecap="round" transform="translate(433 282.5) rotate(0 13.5 17.5)"><path d="M1.27 0.02 C7.1 -1.8, 14.15 0.54, 26.81 -1.49 M0.23 0.62 C7.84 0.84, 15.03 -0.45, 26.99 -0.92 M26.24 1.39 C26.74 15.03, 26 26.31, 25.56 33.42 M26.89 -0.11 C26.62 9.86, 26.42 18.39, 26.25 35.91 M27.44 34.08 C19.34 33.19, 7.25 36.85, -0.85 35.78 M27.69 35.82 C20.3 34.98, 13.73 36.14, -0.12 35.95 M-1.79 34.23 C-0.31 21.79, 0.66 8.94, 0.44 -1.21 M0.5 34.74 C0.86 22.92, -0.11 9.34, 0.18 -0.38" stroke="#000000" stroke-width="1" fill="none"></path></g><g transform="translate(439 287.5) rotate(0 7.5 12.5)"><text x="7.5" y="18" font-family="Virgil, Segoe UI Emoji" font-size="20px" fill="#000000" text-anchor="middle" style="white-space: pre;" direction="ltr">A</text></g><g stroke-linecap="round" transform="translate(476 465.5) rotate(0 13.5 17.5)"><path d="M-0.9 -0.68 C9.21 0.95, 20.13 0.27, 26.31 1.73 M-0.07 -0.53 C9.08 0.52, 19.52 0.26, 26.63 -0.62 M28.29 0.84 C26.68 10.72, 26.49 18.9, 27.57 36.59 M27.68 0.22 C26.71 10.43, 27.21 20.2, 26.62 34.04 M28.08 34.08 C16.64 36.95, 7.9 33.36, -0.6 34.26 M26.23 34.72 C17.09 34.41, 6.35 35.98, -0.8 34.81 M-0.36 35.16 C-0.71 21.49, 0.81 7.32, -1.38 1.78 M-0.97 35.37 C0.21 25.85, 1.02 17.5, -0.85 0.23" stroke="#000000" stroke-width="1" fill="none"></path></g><g transform="translate(481 470.5) rotate(0 8.5 12.5)"><text x="8.5" y="18" font-family="Virgil, Segoe UI Emoji" font-size="20px" fill="#000000" text-anchor="middle" style="white-space: pre;" direction="ltr">B</text></g><g stroke-linecap="round" transform="translate(426 521.5) rotate(0 13.5 17.5)"><path d="M-1.88 -0.6 C7.39 1.67, 14.91 1.72, 25.46 -0.56 M0.71 -0.8 C9.93 0.78, 19.51 -1.13, 26.82 0.08 M27.02 -1.38 C28.84 7.97, 26.48 16.21, 25.07 35.74 M27.56 -0.85 C27.19 11.22, 27.29 22.52, 26.3 34.53 M27.63 36.31 C19.45 35.45, 17.36 35.01, 1.22 34.17 M26.16 35.95 C21.23 35.61, 15.55 35.35, -0.34 35.66 M0.45 35.11 C-0.51 27.47, -1.65 18.39, -1.2 -1.03 M0.37 34.58 C-0.66 25.16, 0.22 14.31, 0.13 -0.69" stroke="#000000" stroke-width="1" fill="none"></path></g><g transform="translate(432 526.5) rotate(0 7.5 12.5)"><text x="7.5" y="18" font-family="Virgil, Segoe UI Emoji" font-size="20px" fill="#000000" text-anchor="middle" style="white-space: pre;" direction="ltr">C</text></g><g stroke-linecap="round" transform="translate(431 655.5) rotate(0 13.5 17.5)"><path d="M0.56 0.02 C6.94 1.73, 15.79 -0.63, 25.59 -1.93 M0.91 0.56 C8.24 0.27, 18.51 0.36, 27.73 -0.7 M28.54 0.63 C28.01 7.05, 26.94 19.57, 26.8 36.22 M27.16 -0.84 C27.62 8.82, 27.24 17.73, 27.31 34.66 M26.67 35.45 C17.24 34.06, 8.43 32.92, 0.79 33.8 M27.28 35.37 C19.87 34.55, 13.96 35.43, -0.24 35.13 M0.95 33.31 C0.28 26.08, -1.49 17.83, -0.47 1.23 M0.98 35.29 C-0.77 25.81, 0.19 18.27, 0.47 0.11" stroke="#000000" stroke-width="1" fill="none"></path></g><g transform="translate(437.5 660.5) rotate(0 7 12.5)"><text x="7" y="18" font-family="Virgil, Segoe UI Emoji" font-size="20px" fill="#000000" text-anchor="middle" style="white-space: pre;" direction="ltr">X</text></g><g stroke-linecap="round" transform="translate(428 726.5) rotate(0 13.5 17.5)"><path d="M-0.68 1.31 C8.61 -1.46, 18.94 0.36, 27.11 -0.75 M-0.6 -0.51 C9.6 0.22, 19.64 0.26, 26.58 -0.54 M27.26 -1.39 C28.65 12.2, 28.07 21.96, 27.54 34.15 M27.61 -0.48 C27.2 7.76, 27.8 17, 26.36 34.62 M27.22 33.6 C16.57 33.55, 10.72 36.2, -1.69 34.16 M26.06 35.14 C21.8 33.86, 15.77 35.72, 0.86 35.47 M-0.3 35.49 C-1.91 21.1, 1.42 8.41, -1.38 1.32 M0.01 34.47 C-1.07 22.12, -0.2 8.52, 0.64 -0.22" stroke="#000000" stroke-width="1" fill="none"></path></g><g transform="translate(432.5 731.5) rotate(0 9 12.5)"><text x="9" y="18" font-family="Virgil, Segoe UI Emoji" font-size="20px" fill="#000000" text-anchor="middle" style="white-space: pre;" direction="ltr">D</text></g><g stroke-linecap="round" transform="translate(371 468) rotate(0 13.5 17.5)"><path d="M0.89 -1.8 C7.79 -1.72, 12.02 0.46, 27.99 -0.31 M0.82 -0.98 C6.19 0.3, 12.99 0.58, 27.17 0.11 M26.85 0.05 C28.62 9.87, 26.93 20.45, 26.06 36.84 M27.37 0.82 C27.81 8.23, 27.65 16.79, 27.1 34.9 M28.64 34.89 C18.52 36.02, 12.82 35.93, 0.7 36.71 M26.33 34.3 C19.51 34.53, 11.1 35.94, 0.82 34.17 M0.34 33.12 C1.61 26.51, 0.16 17.34, 0.18 -0.95 M-0.69 35.84 C-0.5 23.42, -0.69 12.05, -0.49 -0.27" stroke="#000000" stroke-width="1" fill="none"></path></g><g transform="translate(377 473) rotate(0 7.5 12.5)"><text x="7.5" y="18" font-family="Virgil, Segoe UI Emoji" font-size="20px" fill="#000000" text-anchor="middle" style="white-space: pre;" direction="ltr">A</text></g><g stroke-linecap="round"><g transform="translate(546 254.5) rotate(0 1.2281854770052973 217.9778427213244)"><path d="M-0.98 -0.15 C-0.63 72.36, 0.52 362.94, 1.16 435.8 M0.71 -1.28 C1.51 71.36, 3.13 364.49, 3.44 437.24" stroke="#000000" stroke-width="1" fill="none"></path></g></g><g stroke-linecap="round"><g transform="translate(403 502.5966106971789) rotate(0 9.05633894193619 6.391073856138632)"><path d="M0.78 0.79 C3.65 2.84, 15.57 9.63, 18.38 11.68 M-0.27 0.16 C2.44 2.37, 15.11 10.21, 18.01 12.62" stroke="#000000" stroke-width="1" fill="none"></path></g><g transform="translate(403 502.5966106971789) rotate(0 9.05633894193619 6.391073856138632)"><path d="M8.33 10.76 C10.68 11.17, 16.08 11.16, 18.52 12.04 M8.03 9.37 C11.77 11.1, 15.2 12.1, 18.46 12.88" stroke="#000000" stroke-width="1" fill="none"></path></g><g transform="translate(403 502.5966106971789) rotate(0 9.05633894193619 6.391073856138632)"><path d="M12.59 4.75 C13.22 7.56, 16.94 9.93, 18.52 12.04 M12.28 3.36 C14.56 7.22, 16.51 10.32, 18.46 12.88" stroke="#000000" stroke-width="1" fill="none"></path></g></g><g stroke-linecap="round"><g transform="translate(469.26213536699333 497.70548565046647) rotate(0 -8.035677249132164 9.29202714708424)"><path d="M0.4 -0.95 C-2.16 1.84, -13.87 14.84, -16.47 17.92 M-0.85 1.16 C-2.91 4.69, -11.61 16.61, -14.07 19.54" stroke="#000000" stroke-width="1" fill="none"></path></g><g transform="translate(469.26213536699333 497.70548565046647) rotate(0 -8.035677249132164 9.29202714708424)"><path d="M-11.39 7.59 C-10.93 11.17, -12.05 13.64, -14.67 18.7 M-10.22 8.19 C-11.02 10.12, -11.58 13.11, -13.79 19.1" stroke="#000000" stroke-width="1" fill="none"></path></g><g transform="translate(469.26213536699333 497.70548565046647) rotate(0 -8.035677249132164 9.29202714708424)"><path d="M-4.94 12.58 C-5.85 15.16, -8.3 16.6, -14.67 18.7 M-3.77 13.17 C-5.91 14.04, -7.79 16.01, -13.79 19.1" stroke="#000000" stroke-width="1" fill="none"></path></g></g><g stroke-linecap="round"><g transform="translate(440.62633457491256 692.5) rotate(0 -2.3898575676927294 14.837570249391717)"><path d="M0.24 -0.97 C-0.79 3.89, -4.1 24.27, -5.02 29.42 M-1.09 1.13 C-1.84 6.13, -2.4 25.65, -2.71 30.65" stroke="#000000" stroke-width="1" fill="none"></path></g><g transform="translate(440.62633457491256 692.5) rotate(0 -2.3898575676927294 14.837570249391717)"><path d="M-8.47 15.23 C-6.15 20.61, -3.76 27.28, -2.93 30.77 M-7.44 15.79 C-6.92 19.57, -5.54 22.59, -2.77 30.12" stroke="#000000" stroke-width="1" fill="none"></path></g><g transform="translate(440.62633457491256 692.5) rotate(0 -2.3898575676927294 14.837570249391717)"><path d="M1.89 15.7 C0.09 20.91, -1.64 27.4, -2.93 30.77 M2.92 16.26 C1.25 19.95, 0.46 22.87, -2.77 30.12" stroke="#000000" stroke-width="1" fill="none"></path></g></g><g stroke-linecap="round" transform="translate(650 662.5) rotate(0 20.5 19.5)"><path d="M24.23 0.28 C28.06 0.9, 33.08 5.1, 35.84 8.38 C38.59 11.66, 40.75 15.73, 40.76 19.95 C40.77 24.17, 38.69 30.43, 35.9 33.69 C33.1 36.96, 28.4 39.02, 23.99 39.54 C19.57 40.06, 13.16 39.06, 9.43 36.79 C5.69 34.53, 3.02 30.16, 1.59 25.94 C0.17 21.73, -0.67 15.47, 0.87 11.5 C2.42 7.53, 5.97 3.58, 10.85 2.13 C15.72 0.68, 26.29 2.42, 30.12 2.81 C33.94 3.2, 34.09 4.28, 33.81 4.48 M28.56 0.48 C32.7 1.5, 37.09 5.24, 38.85 9.23 C40.6 13.23, 40.22 19.97, 39.08 24.48 C37.94 28.98, 35.37 33.72, 32.02 36.26 C28.68 38.8, 23.01 40.26, 19 39.73 C14.98 39.2, 10.99 36.11, 7.95 33.08 C4.9 30.06, 1.56 25.61, 0.72 21.58 C-0.11 17.56, 0.93 12.41, 2.94 8.95 C4.94 5.5, 8.54 2.25, 12.74 0.86 C16.94 -0.54, 25.42 0.44, 28.15 0.6 C30.89 0.75, 29.33 1.29, 29.16 1.79" stroke="#c92a2a" stroke-width="1" fill="none"></path></g><g transform="translate(663.5 669.5) rotate(0 7 12.5)"><text x="7" y="18" font-family="Virgil, Segoe UI Emoji" font-size="20px" fill="#c92a2a" text-anchor="middle" style="white-space: pre;" direction="ltr">X</text></g><g stroke-linecap="round" transform="translate(270 463) rotate(0 13.5 17.5)"><path d="M1.68 0.34 C7.42 0.77, 12.97 -1.47, 26.74 -1.12 M-0.45 -0.17 C6.56 -0.06, 10.97 -0.28, 26.97 0.18 M28.51 1.86 C27.51 13.62, 27.47 23.55, 25.55 34.25 M26.46 0.2 C27.29 9.49, 27.51 17.82, 27.5 35.42 M25.24 35.42 C22.01 35.72, 14.37 35.71, -1.97 34.55 M27.42 34.25 C20.2 35.79, 15.06 35.55, -0.53 34.54 M-1.75 33.82 C0.13 24.8, 1.83 18.55, 1.65 -0.97 M0.15 35.4 C-1.14 23.37, -0.38 9.27, 0.73 0.82" stroke="#000000" stroke-width="1" fill="none"></path></g><g transform="translate(275 468) rotate(0 8.5 12.5)"><text x="8.5" y="18" font-family="Virgil, Segoe UI Emoji" font-size="20px" fill="#000000" text-anchor="middle" style="white-space: pre;" direction="ltr">B</text></g><g stroke-linecap="round" transform="translate(220 519) rotate(0 13.5 17.5)"><path d="M0.99 0.68 C7.32 -1.6, 14.19 -1.17, 25.16 0.49 M0.94 -0.32 C5.25 -0.49, 11.02 0.23, 27.51 -0.59 M27.72 1.35 C27.94 9.49, 25.81 20.22, 26.32 33.44 M27.56 0.18 C27.6 11.05, 27.31 24.11, 26.18 35.7 M27.9 35.86 C19.47 35.91, 11.66 34.61, -1.3 35.73 M26.54 35.6 C17.73 35.15, 6.45 34.33, -0.38 34.04 M-0.2 33.97 C1.8 24.22, 1.96 8.67, 1.07 1.13 M-0.94 35.74 C-0.24 23.62, 0.68 15.04, 0.93 0.8" stroke="#000000" stroke-width="1" fill="none"></path></g><g transform="translate(226 524) rotate(0 7.5 12.5)"><text x="7.5" y="18" font-family="Virgil, Segoe UI Emoji" font-size="20px" fill="#000000" text-anchor="middle" style="white-space: pre;" direction="ltr">C</text></g><g stroke-linecap="round" transform="translate(227 657) rotate(0 13.5 17.5)"><path d="M0.1 -1.56 C8.3 -1.21, 15.28 0.4, 25.09 -0.9 M-0.28 -0.54 C7.61 0.27, 15.8 -0.5, 27 0.75 M27.68 -1 C25.67 13, 26.44 25.94, 27.77 33.93 M27.79 -0.8 C27.7 11.61, 26.38 23.08, 26.48 34.12 M26.16 35.85 C16.36 34.67, 8.35 35.84, 1.41 35.84 M27.74 35.36 C20.4 34.7, 14.5 34.2, 0.62 34.13 M1.49 36.9 C1.69 25.6, 1.1 19.25, -0.06 0.3 M-0.18 34.01 C1.06 23.92, 1.25 12.02, 0.36 -0.86" stroke="#000000" stroke-width="1" fill="none"></path></g><g transform="translate(233 662) rotate(0 7.5 12.5)"><text x="7.5" y="18" font-family="Virgil, Segoe UI Emoji" font-size="20px" fill="#000000" text-anchor="middle" style="white-space: pre;" direction="ltr">C</text></g><g stroke-linecap="round" transform="translate(224 728) rotate(0 13.5 17.5)"><path d="M-0.26 -1.12 C7.18 0.7, 16.13 -0.69, 26.67 1.87 M-0.03 0.18 C7.74 -0.45, 14.46 0.9, 27.93 0.36 M25.55 -0.75 C26.44 11.29, 27.89 24.63, 27.4 36.13 M27.5 0.42 C26.46 11.82, 26.75 21.38, 27.21 35.45 M25.03 34.55 C16.43 35.84, 9.89 35.95, -1.51 34.08 M26.47 34.54 C16.91 34.13, 8.19 34.22, -0.59 34.9 M1.65 34.03 C0.81 27.42, -0.32 17.89, 0.8 -1.88 M0.73 35.82 C0.99 22.72, 0.42 7.98, 0.87 0.99" stroke="#000000" stroke-width="1" fill="none"></path></g><g transform="translate(228.5 733) rotate(0 9 12.5)"><text x="9" y="18" font-family="Virgil, Segoe UI Emoji" font-size="20px" fill="#000000" text-anchor="middle" style="white-space: pre;" direction="ltr">D</text></g><g stroke-linecap="round" transform="translate(165 465.5) rotate(0 13.5 17.5)"><path d="M-1.84 0.49 C4.09 -0.75, 11.66 2.02, 26.36 -0.56 M0.51 -0.59 C6.65 0.7, 14.24 0.31, 27.67 0.34 M26.32 -1.56 C27.51 7.68, 27.14 18.63, 27.36 36.58 M26.18 0.7 C26.65 6.84, 27.39 15.88, 27.43 34.58 M25.7 35.73 C19.16 35.78, 6.99 34.02, 1.2 36.49 M26.62 34.04 C18.56 34, 8.28 34.77, -0.51 35.75 M1.07 36.13 C-0.35 21.48, 0.51 5.47, 1.48 -0.37 M0.93 35.8 C0.1 27.11, 0.62 21.92, 0.2 0.94" stroke="#000000" stroke-width="1" fill="none"></path></g><g transform="translate(171 470.5) rotate(0 7.5 12.5)"><text x="7.5" y="18" font-family="Virgil, Segoe UI Emoji" font-size="20px" fill="#000000" text-anchor="middle" style="white-space: pre;" direction="ltr">A</text></g><g stroke-linecap="round"><g transform="translate(197 500.0966106971789) rotate(0 10.37050497618202 8.962178037202932)"><path d="M0.3 -1.14 C4.03 1.98, 17.9 14.54, 21.75 17.64 M-1.01 0.87 C2.58 4.28, 16.47 16.12, 20.52 19.07" stroke="#000000" stroke-width="1" fill="none"></path></g><g transform="translate(197 500.0966106971789) rotate(0 10.37050497618202 8.962178037202932)"><path d="M5.62 13.88 C10.01 16.93, 13.09 16.31, 19.75 19.02 M6.98 15.06 C11.98 16.3, 16.11 17.74, 20.16 18.55" stroke="#000000" stroke-width="1" fill="none"></path></g><g transform="translate(197 500.0966106971789) rotate(0 10.37050497618202 8.962178037202932)"><path d="M11.71 6.24 C14.54 11.18, 16.13 12.42, 19.75 19.02 M13.07 7.43 C16.17 11.07, 18.35 14.93, 20.16 18.55" stroke="#000000" stroke-width="1" fill="none"></path></g></g><g stroke-linecap="round"><g transform="translate(263.26213536699333 495.20548565046647) rotate(0 -8.333488156868555 12.175613387020093)"><path d="M-1.14 -0.54 C-3.64 3.56, -13.55 20.9, -16.07 24.89 M0.46 1.79 C-2.12 5.55, -14.18 19.56, -17.12 23.36" stroke="#000000" stroke-width="1" fill="none"></path></g><g transform="translate(263.26213536699333 495.20548565046647) rotate(0 -8.333488156868555 12.175613387020093)"><path d="M-13.04 9.64 C-12 12.18, -14.73 14.68, -17.17 23.62 M-11.85 10.54 C-13.87 15.09, -15.55 18.98, -17.64 23.09" stroke="#000000" stroke-width="1" fill="none"></path></g><g transform="translate(263.26213536699333 495.20548565046647) rotate(0 -8.333488156868555 12.175613387020093)"><path d="M-5.48 15.84 C-6.03 17.02, -10.33 18.23, -17.17 23.62 M-4.29 16.74 C-8.93 19.11, -13.25 20.83, -17.64 23.09" stroke="#000000" stroke-width="1" fill="none"></path></g></g><g stroke-linecap="round"><g transform="translate(236.62633457491256 694) rotate(0 -1.0624896656485134 14.798346323948351)"><path d="M-0.54 -0.2 C-1.12 4.93, -2.46 24.69, -3.14 29.61 M1.37 -1.35 C0.71 4.05, -2.35 25.67, -3.5 30.95" stroke="#000000" stroke-width="1" fill="none"></path></g><g transform="translate(236.62633457491256 694) rotate(0 -1.0624896656485134 14.798346323948351)"><path d="M-6.43 17.45 C-5.93 20.47, -5.39 25.68, -3.22 31.72 M-5.47 16.31 C-5.02 19.86, -5.26 22.65, -3.78 30.69" stroke="#000000" stroke-width="1" fill="none"></path></g><g transform="translate(236.62633457491256 694) rotate(0 -1.0624896656485134 14.798346323948351)"><path d="M3.78 19.22 C0.98 21.62, -1.79 26.25, -3.22 31.72 M4.74 18.08 C2.73 21.28, 0.03 23.64, -3.78 30.69" stroke="#000000" stroke-width="1" fill="none"></path></g></g><g stroke-linecap="round" transform="translate(219.5 576) rotate(0 13.5 17.5)"><path d="M-1.58 -1.18 C10.57 2.09, 18.14 -0.61, 26.4 1.17 M0.69 -0.5 C5.19 0.87, 12.32 -0.8, 26.31 -0.66 M28.16 0.09 C26.5 9.9, 27.46 24.49, 28.09 33.61 M27.46 -0.17 C27.05 7.25, 26.68 17.25, 26.6 34.31 M27.73 35.18 C18.65 33.73, 7.39 35.8, -0.06 35.98 M27.23 35.91 C16.22 33.92, 6.09 35.63, -0.15 34.3 M0.08 33.46 C-0.45 26.07, 0.75 15.12, -1.5 1.07 M-0.92 34.15 C1 25.03, 0.33 16.68, 0.4 -0.8" stroke="#000000" stroke-width="1" fill="none"></path></g><g transform="translate(224 581) rotate(0 9 12.5)"><text x="9" y="18" font-family="Virgil, Segoe UI Emoji" font-size="20px" fill="#000000" text-anchor="middle" style="white-space: pre;" direction="ltr">D</text></g><g stroke-linecap="round"><g transform="translate(233 555.5) rotate(0 -0.6932058188319274 8.962238861806725)"><path d="M-1.08 0.21 C-1.31 3.38, -1.05 15.82, -1.34 18.65 M0.55 -0.73 C0.22 2.13, -1.78 13.73, -1.94 16.87" stroke="#000000" stroke-width="1" fill="none"></path></g><g transform="translate(233 555.5) rotate(0 -0.6932058188319274 8.962238861806725)"><path d="M-3.87 8.56 C-2.93 10.13, -3.37 13.08, -1.75 17.28 M-4.11 8.42 C-3.6 10.26, -2.63 13.04, -1.77 17.04" stroke="#000000" stroke-width="1" fill="none"></path></g><g transform="translate(233 555.5) rotate(0 -0.6932058188319274 8.962238861806725)"><path d="M2.28 9.28 C1.35 10.58, -0.97 13.31, -1.75 17.28 M2.04 9.14 C0.81 10.71, 0.04 13.29, -1.77 17.04" stroke="#000000" stroke-width="1" fill="none"></path></g></g><g stroke-linecap="round" transform="translate(269 279.5) rotate(0 13.5 17.5)"><path d="M-1.46 0.74 C6.29 -0.86, 15.48 -0.18, 25.31 -1.23 M0.63 -0.31 C10.07 -1.01, 18.63 -0.59, 26.78 -0.24 M25.32 -0.02 C25.53 8.39, 27.9 19.73, 27.93 33.62 M26.57 -0.62 C27.91 9.6, 26.37 17.72, 26.18 35.45 M26.09 35.27 C17.68 34.4, 9.8 33.05, 1.81 36.51 M27.71 35.77 C20.62 35.16, 15.22 35.42, -0.56 34.72 M-1.38 36.86 C-0.67 22.91, 1.77 12.49, 1.25 1.72 M-0.51 34.4 C0.42 23.32, -0.06 10.99, -0.08 -0.31" stroke="#000000" stroke-width="1" fill="none"></path></g><g transform="translate(274 284.5) rotate(0 8.5 12.5)"><text x="8.5" y="18" font-family="Virgil, Segoe UI Emoji" font-size="20px" fill="#000000" text-anchor="middle" style="white-space: pre;" direction="ltr">B</text></g><g stroke-linecap="round" transform="translate(219 335.5) rotate(0 13.5 17.5)"><path d="M-1.9 -1.09 C4.92 -0.51, 9.95 -1.33, 27.94 1.77 M0.7 -0.79 C10.2 -0.29, 20.41 -0.16, 26.78 0.47 M25.36 -1.35 C27.44 7.77, 27.63 13.65, 26.22 36.61 M27.63 0.47 C25.93 9.28, 26.03 20.11, 27.29 34.82 M26.57 34.39 C19.45 33.09, 12.53 36.55, -1.98 34.73 M26.05 35.16 C17.97 35.63, 10.23 34.93, 0.32 34.57 M-0.82 34.53 C1.86 27.33, 1.49 19.92, 0.74 0.12 M0.44 35.12 C0.14 22.07, 0.1 9.66, -0.96 -0.14" stroke="#000000" stroke-width="1" fill="none"></path></g><g transform="translate(225 340.5) rotate(0 7.5 12.5)"><text x="7.5" y="18" font-family="Virgil, Segoe UI Emoji" font-size="20px" fill="#000000" text-anchor="middle" style="white-space: pre;" direction="ltr">C</text></g><g stroke-linecap="round" transform="translate(164 282) rotate(0 13.5 17.5)"><path d="M-0.9 -0.41 C7.4 -1.08, 19.14 1.91, 28.64 1.27 M-0.12 -0.37 C7.04 -0.03, 14.31 0.69, 26.15 -0.84 M27.73 0.25 C27.64 9.07, 25.93 22.53, 26.62 34.14 M26.08 -0.55 C26.4 8.8, 27.51 16.51, 27.01 34.54 M27.59 33.05 C20.35 36.43, 8.09 34.65, 0 36.43 M26.07 35.42 C16.26 34.76, 6.96 34.61, -0.6 34.31 M1.62 35.73 C1.39 22.96, 0.88 7.59, 1.15 -1.01 M-0.04 34.58 C-0.23 26.29, -1.11 18.06, -0.1 0.49" stroke="#000000" stroke-width="1" fill="none"></path></g><g transform="translate(170 287) rotate(0 7.5 12.5)"><text x="7.5" y="18" font-family="Virgil, Segoe UI Emoji" font-size="20px" fill="#000000" text-anchor="middle" style="white-space: pre;" direction="ltr">A</text></g><g stroke-linecap="round"><g transform="translate(196 316.5966106971789) rotate(0 11.815021299837895 8.693444401034213)"><path d="M-0.25 -1.02 C3.45 2.14, 17.62 15.1, 21.55 18.4 M1.82 1.07 C5.97 3.91, 20.32 13.92, 23.88 16.58" stroke="#000000" stroke-width="1" fill="none"></path></g><g transform="translate(196 316.5966106971789) rotate(0 11.815021299837895 8.693444401034213)"><path d="M8.93 11.84 C14.17 14.96, 18.04 15.55, 23.44 17.57 M9.97 12.55 C13.02 13.96, 15.6 13.88, 23.87 15.99" stroke="#000000" stroke-width="1" fill="none"></path></g><g transform="translate(196 316.5966106971789) rotate(0 11.815021299837895 8.693444401034213)"><path d="M14.62 3.91 C18.43 8.96, 20.9 11.5, 23.44 17.57 M15.67 4.62 C17.44 7.77, 18.77 9.43, 23.87 15.99" stroke="#000000" stroke-width="1" fill="none"></path></g></g><g stroke-linecap="round"><g transform="translate(262.26213536699333 311.70548565046647) rotate(0 -7.651360321416007 12.04626593151852)"><path d="M-1.02 -0.74 C-3.48 3.44, -12.99 20.62, -15.3 24.83 M0.65 1.49 C-1.87 5.38, -13.32 19.75, -15.96 23.27" stroke="#000000" stroke-width="1" fill="none"></path></g><g transform="translate(262.26213536699333 311.70548565046647) rotate(0 -7.651360321416007 12.04626593151852)"><path d="M-12.48 10.33 C-11.48 14.26, -12.95 16.12, -14.96 22.14 M-11.77 9.5 C-12.57 12.95, -14.76 17.48, -16.54 22.78" stroke="#000000" stroke-width="1" fill="none"></path></g><g transform="translate(262.26213536699333 311.70548565046647) rotate(0 -7.651360321416007 12.04626593151852)"><path d="M-4.75 16.31 C-5.71 18.65, -9.15 18.98, -14.96 22.14 M-4.04 15.48 C-7.04 17.2, -11.46 19.99, -16.54 22.78" stroke="#000000" stroke-width="1" fill="none"></path></g></g><g stroke-linecap="round" transform="translate(218.5 392.5) rotate(0 13.5 17.5)"><path d="M0.94 1.77 C9.19 1.43, 14.47 1.56, 25.43 -0.24 M-0.22 0.47 C6.25 -0.78, 14.19 -0.76, 26.33 0.37 M26.22 1.61 C26.78 10.08, 25.93 23.13, 27.93 33.17 M27.29 -0.18 C26.73 8.1, 26.85 16.9, 26.7 35.29 M25.02 34.73 C21.54 36.63, 17.61 33.3, 0.31 33.14 M27.32 34.57 C17.16 34.24, 9.46 34.51, -0.24 35.81 M0.74 35.12 C0.93 22.21, -1.42 12.33, 0.24 -0.08 M-0.96 34.86 C-0.08 26.46, 1.02 16.37, -0.26 -0.51" stroke="#000000" stroke-width="1" fill="none"></path></g><g transform="translate(223 397.5) rotate(0 9 12.5)"><text x="9" y="18" font-family="Virgil, Segoe UI Emoji" font-size="20px" fill="#000000" text-anchor="middle" style="white-space: pre;" direction="ltr">D</text></g><g stroke-linecap="round"><g transform="translate(232 372) rotate(0 -0.3637859540712043 9.713946681004018)"><path d="M1.06 0.98 C0.98 3.83, -0.87 14.95, -1.24 17.63 M0.16 0.46 C0.05 3.42, -1.51 16.07, -1.79 18.97" stroke="#000000" stroke-width="1" fill="none"></path></g><g transform="translate(232 372) rotate(0 -0.3637859540712043 9.713946681004018)"><path d="M-3.19 10.75 C-3.66 12.88, -3.58 14.24, -2.12 18.77 M-4.32 9.79 C-3.37 12.22, -3.07 15.19, -1.73 19.18" stroke="#000000" stroke-width="1" fill="none"></path></g><g transform="translate(232 372) rotate(0 -0.3637859540712043 9.713946681004018)"><path d="M2.97 11.43 C1.03 13.46, -0.36 14.65, -2.12 18.77 M1.84 10.47 C1.09 12.74, -0.31 15.52, -1.73 19.18" stroke="#000000" stroke-width="1" fill="none"></path></g></g><g stroke-linecap="round" transform="translate(707 463.5) rotate(0 13.5 17.5)"><path d="M-0.1 -1.28 C8.17 -0.33, 15.53 0.73, 26.39 1.56 M-0.52 -0.59 C6.88 -0.13, 15.62 0.04, 26.03 0.27 M27.14 -1.22 C28.6 8.74, 25.3 17.36, 27.38 36.02 M26.55 -0.22 C26.92 13.19, 26.86 26.18, 27.43 34.73 M27.25 33.64 C17.45 34.53, 9.8 33.18, 1.31 33.78 M27.65 34.64 C21.46 34.39, 15.62 34.53, 0.82 35.1 M1.77 36.58 C1.82 26.35, 0.45 15.8, 0.35 0.01 M0.29 35.55 C-0.05 26.46, 0.94 18.15, -0.41 0.56" stroke="#e67700" stroke-width="1" fill="none"></path></g><g transform="translate(712 468.5) rotate(0 8.5 12.5)"><text x="8.5" y="18" font-family="Virgil, Segoe UI Emoji" font-size="20px" fill="#e67700" text-anchor="middle" style="white-space: pre;" direction="ltr">B</text></g><g stroke-linecap="round" transform="translate(657 519.5) rotate(0 13.5 17.5)"><path d="M0.3 -0.08 C10.39 1.15, 20.59 1.74, 26.74 1.52 M-0.87 -0.4 C5.52 -0.06, 9.85 0.43, 26.74 -0.97 M28.94 -0.85 C25.66 6.5, 27.4 17.66, 28.21 36.68 M26.63 0.58 C26.41 8.02, 27.27 13.87, 26.88 34.51 M25.22 34.75 C19.41 33.22, 16.45 33.59, -1.95 35.62 M26.93 34.57 C20.28 34.61, 15.27 35, -0.02 34.7 M1.72 36.78 C0.04 25.35, 0.04 12.39, -1.06 -0.13 M-0.08 35.11 C0.81 27, -0.51 18.66, 0.56 0.48" stroke="#e67700" stroke-width="1" fill="none"></path></g><g transform="translate(663 524.5) rotate(0 7.5 12.5)"><text x="7.5" y="18" font-family="Virgil, Segoe UI Emoji" font-size="20px" fill="#e67700" text-anchor="middle" style="white-space: pre;" direction="ltr">C</text></g><g stroke-linecap="round" transform="translate(602 466) rotate(0 13.5 17.5)"><path d="M-0.22 0.98 C5.76 1.57, 12.5 1.53, 25.01 -1.05 M0.11 -0.22 C5.53 0.38, 12.73 -0.87, 26.38 0.07 M25.64 -1.82 C27.72 9.39, 28.55 18.43, 25.04 34.11 M26.56 0.95 C27.3 9.45, 26.75 18.95, 26.19 35.13 M25.34 33.4 C22.04 33.74, 12.53 35.59, -1.35 36.3 M26.55 34.71 C20.7 34.98, 12.73 34.59, 0.23 35.88 M0.35 36.66 C0.05 21.75, -1.36 8.35, -1.17 0.58 M0.92 35.46 C-0.38 23.13, 0.58 10.61, -0.27 0.82" stroke="#e67700" stroke-width="1" fill="none"></path></g><g transform="translate(608 471) rotate(0 7.5 12.5)"><text x="7.5" y="18" font-family="Virgil, Segoe UI Emoji" font-size="20px" fill="#e67700" text-anchor="middle" style="white-space: pre;" direction="ltr">A</text></g><g stroke-linecap="round"><g transform="translate(634 500.5966106971789) rotate(0 11.331960822461951 8.766694063012551)"><path d="M0.59 -0.37 C4.47 2.6, 19.46 14.85, 23.23 17.68 M-0.57 -1.6 C3.24 1.57, 18.86 15.98, 22.77 19.14" stroke="#000000" stroke-width="1" fill="none"></path></g><g transform="translate(634 500.5966106971789) rotate(0 11.331960822461951 8.766694063012551)"><path d="M9.02 15.12 C13.21 16.54, 15.91 16.23, 21.93 17.9 M8.76 14.2 C12.74 14.67, 15.94 16.75, 22.34 19.83" stroke="#000000" stroke-width="1" fill="none"></path></g><g transform="translate(634 500.5966106971789) rotate(0 11.331960822461951 8.766694063012551)"><path d="M15.44 7.76 C17.72 11.39, 18.52 13.26, 21.93 17.9 M15.18 6.84 C17.49 9.21, 19.03 13.2, 22.34 19.83" stroke="#000000" stroke-width="1" fill="none"></path></g></g><g stroke-linecap="round"><g transform="translate(707.2621353669933 496.70548565046647) rotate(0 -11.206117487920892 12.034775077456402)"><path d="M-0.37 0.94 C-4.18 4.79, -19.07 20.15, -23.02 23.68 M1.64 0.38 C-2.33 3.86, -20.15 18.25, -24.05 22.04" stroke="#000000" stroke-width="1" fill="none"></path></g><g transform="translate(707.2621353669933 496.70548565046647) rotate(0 -11.206117487920892 12.034775077456402)"><path d="M-15 7.7 C-17.22 10.37, -21.54 15.1, -25.46 21.39 M-16.04 7.7 C-19.5 11.73, -21.09 16.14, -23.27 21.7" stroke="#000000" stroke-width="1" fill="none"></path></g><g transform="translate(707.2621353669933 496.70548565046647) rotate(0 -11.206117487920892 12.034775077456402)"><path d="M-7.74 16.02 C-12.1 16.25, -18.52 18.59, -25.46 21.39 M-8.78 16.02 C-14.49 17.39, -18.33 19.21, -23.27 21.7" stroke="#000000" stroke-width="1" fill="none"></path></g></g><g stroke-linecap="round" transform="translate(657.5 576.5) rotate(0 13.5 17.5)"><path d="M-0.26 1.52 C7.43 -1.26, 17.65 -1.95, 26.2 0.23 M-0.26 -0.97 C6.87 0, 14.38 0.9, 26.58 -0.68 M28.21 1.68 C25.11 6.43, 26.62 13.89, 28.15 34.13 M26.88 -0.49 C26.34 13.96, 26.47 26.77, 26.87 34.17 M25.05 35.62 C19.71 36.14, 14.4 34.7, -0.86 34.11 M26.98 34.7 C19.92 35.91, 13.17 35.89, 0.89 35.17 M-1.06 34.87 C-1.23 22.17, 1.05 8.04, 0.22 1.83 M0.56 35.48 C-0.13 23.73, 0.51 10.02, 0.1 -0.27" stroke="#2b8a3e" stroke-width="1" fill="none"></path></g><g transform="translate(662 581.5) rotate(0 9 12.5)"><text x="9" y="18" font-family="Virgil, Segoe UI Emoji" font-size="20px" fill="#2b8a3e" text-anchor="middle" style="white-space: pre;" direction="ltr">D</text></g><g stroke-linecap="round"><g transform="translate(670 556) rotate(0 -0.5854752884876007 8.627097401423384)"><path d="M0.91 -1.2 C0.41 1.71, -1.52 14.17, -2.09 17.29 M-0.06 0.79 C-0.25 3.85, 0.31 15.48, 0.3 18.45" stroke="#000000" stroke-width="1" fill="none"></path></g><g transform="translate(670 556) rotate(0 -0.5854752884876007 8.627097401423384)"><path d="M-3.89 9.57 C-2.29 12.41, -0.88 16.48, 0.09 17.57 M-3.27 10.07 C-2.21 13.26, -1.05 15.26, -0.11 18.53" stroke="#000000" stroke-width="1" fill="none"></path></g><g transform="translate(670 556) rotate(0 -0.5854752884876007 8.627097401423384)"><path d="M2.28 9.42 C1.55 12.37, 0.63 16.49, 0.09 17.57 M2.9 9.93 C1.94 13.1, 1.08 15.15, -0.11 18.53" stroke="#000000" stroke-width="1" fill="none"></path></g></g><g stroke-linecap="round" transform="translate(697 279.5) rotate(0 13.5 17.5)"><path d="M-1.1 -0.27 C7.76 0.93, 13.2 2.04, 27.01 0.93 M0.48 0.68 C10.17 -0.95, 21.87 -0.94, 26.04 -0.44 M27.13 -0.49 C25.25 8.06, 27.83 15.6, 26.04 34.52 M27.67 -0.87 C26.26 10, 27.46 17.75, 26.21 34.43 M28 33.91 C17.85 36.87, 5.83 33.41, 1.67 33.8 M27.83 34.17 C16.33 34.08, 5.72 35.16, 0.08 34.6 M-0.08 36.91 C-0.94 24.8, 1.71 14.09, 0.55 -0.5 M-0.89 34.58 C-0.08 24.42, -0.91 14.78, 0.76 -0.38" stroke="#2b8a3e" stroke-width="1" fill="none"></path></g><g transform="translate(702 284.5) rotate(0 8.5 12.5)"><text x="8.5" y="18" font-family="Virgil, Segoe UI Emoji" font-size="20px" fill="#2b8a3e" text-anchor="middle" style="white-space: pre;" direction="ltr">B</text></g><g stroke-linecap="round" transform="translate(647 335.5) rotate(0 13.5 17.5)"><path d="M1.77 0.76 C7.58 1.9, 12.72 0.96, 28.89 0.54 M-0.49 -0.99 C8.25 -1.16, 14.43 -0.62, 26.09 -0.84 M25.55 0.73 C28.15 8.01, 26.06 13.65, 26.16 35.87 M26.11 0.97 C27.54 6.85, 26.45 13.73, 27.65 34.29 M27.7 36.94 C18.12 33.33, 13.82 33.65, 1.62 35.55 M26.62 34.3 C20.42 35.16, 15.31 34.37, 0.15 34.47 M-1.12 35.83 C1.54 28.35, 0.56 18.91, -0.29 0.22 M-0.04 34.42 C-0.56 24.45, 1.08 14, 0.21 0.71" stroke="#2b8a3e" stroke-width="1" fill="none"></path></g><g transform="translate(653 340.5) rotate(0 7.5 12.5)"><text x="7.5" y="18" font-family="Virgil, Segoe UI Emoji" font-size="20px" fill="#2b8a3e" text-anchor="middle" style="white-space: pre;" direction="ltr">C</text></g><g stroke-linecap="round" transform="translate(592 282) rotate(0 13.5 17.5)"><path d="M1.22 1.86 C7.75 0.83, 17.38 0.44, 26.7 0.96 M0.56 -0.98 C8.98 -0.17, 18.98 -0.57, 26.02 0.07 M28.12 0.94 C25.78 9.17, 25.9 20.16, 25.09 36.34 M27.3 -0.3 C25.9 6.87, 27.34 14.17, 26.75 35.5 M25.54 33.47 C22.04 34.06, 15.36 35.81, -1.64 36.65 M26.3 35.39 C21.21 34.41, 15.43 34.28, -0.77 34.96 M1.52 36.14 C0.74 20.65, -0.09 7.52, -0.11 -1.79 M-0.88 34.76 C0.78 25.59, 0.22 17.65, 0.44 0.5" stroke="#e67700" stroke-width="1" fill="none"></path></g><g transform="translate(598 287) rotate(0 7.5 12.5)"><text x="7.5" y="18" font-family="Virgil, Segoe UI Emoji" font-size="20px" fill="#e67700" text-anchor="middle" style="white-space: pre;" direction="ltr">A</text></g><g stroke-linecap="round"><g transform="translate(624 316.5966106971789) rotate(0 11.547390763644842 8.96713943418959)"><path d="M1.12 0 C4.85 3.04, 19.27 16.03, 22.85 18.97 M0.25 -1.04 C3.83 1.63, 18.56 14.13, 22.19 17.45" stroke="#000000" stroke-width="1" fill="none"></path></g><g transform="translate(624 316.5966106971789) rotate(0 11.547390763644842 8.96713943418959)"><path d="M8.89 12.96 C14.76 14.3, 17.69 16.34, 23.17 16.75 M8.2 11.98 C10.94 12.86, 13.56 14.54, 22.02 16.93" stroke="#000000" stroke-width="1" fill="none"></path></g><g transform="translate(624 316.5966106971789) rotate(0 11.547390763644842 8.96713943418959)"><path d="M15.31 5.61 C19.06 9.49, 19.82 14.01, 23.17 16.75 M14.62 4.63 C16.12 6.93, 17.45 10.09, 22.02 16.93" stroke="#000000" stroke-width="1" fill="none"></path></g></g><g stroke-linecap="round"><g transform="translate(690.2621353669933 311.70548565046647) rotate(0 -7.5403043121364135 11.950432134091614)"><path d="M0 0.56 C-2.57 4.39, -12.06 20.13, -14.73 24.1 M-1.45 -0.2 C-4.15 3.77, -12.51 18.4, -15.09 22.15" stroke="#000000" stroke-width="1" fill="none"></path></g><g transform="translate(690.2621353669933 311.70548565046647) rotate(0 -7.5403043121364135 11.950432134091614)"><path d="M-11.47 9.52 C-12.68 13, -13.45 19.23, -15.78 20.73 M-12.44 7.52 C-13.92 12.41, -14.32 17.91, -15.6 22.4" stroke="#000000" stroke-width="1" fill="none"></path></g><g transform="translate(690.2621353669933 311.70548565046647) rotate(0 -7.5403043121364135 11.950432134091614)"><path d="M-3.17 14.69 C-7.43 16.3, -11.19 20.67, -15.78 20.73 M-4.15 12.69 C-8.52 15.66, -11.88 19.32, -15.6 22.4" stroke="#000000" stroke-width="1" fill="none"></path></g></g><g stroke-linecap="round" transform="translate(647.5 392.5) rotate(0 13.5 17.5)"><path d="M1.89 0.54 C10.32 0.83, 22.6 -1.1, 25.02 1.11 M-0.91 -0.84 C4.48 0.18, 10.68 -0.61, 27.36 0.56 M26.16 0.87 C24.92 13.49, 25.08 22.51, 28.95 35.61 M27.65 -0.71 C26.48 9.96, 26.18 19.27, 27.97 34.27 M28.62 35.55 C19.32 36.49, 13.26 34.07, -1.4 33.6 M27.15 34.47 C17.09 34.85, 9.68 34.33, 0.42 35.76 M-0.29 35.22 C-0.2 20.71, -0.93 9.92, -1.17 -1.75 M0.21 35.71 C0.17 25.82, -0.73 15.87, -0.84 -0.05" stroke="#2b8a3e" stroke-width="1" fill="none"></path></g><g transform="translate(652 397.5) rotate(0 9 12.5)"><text x="9" y="18" font-family="Virgil, Segoe UI Emoji" font-size="20px" fill="#2b8a3e" text-anchor="middle" style="white-space: pre;" direction="ltr">D</text></g><g stroke-linecap="round"><g transform="translate(660 372) rotate(0 -0.6010689682956354 8.749045013375593)"><path d="M0.33 -0.18 C0.09 2.77, -0.49 15.99, -0.88 18.82 M-0.96 -1.32 C-1.36 1.8, -1.17 13.99, -1.53 17.13" stroke="#000000" stroke-width="1" fill="none"></path></g><g transform="translate(660 372) rotate(0 -0.6010689682956354 8.749045013375593)"><path d="M-4.38 8.95 C-2.61 11.05, -3.17 14.98, -2.41 16.26 M-4.69 8.55 C-3.74 10.42, -2.77 13.21, -1.32 16.91" stroke="#000000" stroke-width="1" fill="none"></path></g><g transform="translate(660 372) rotate(0 -0.6010689682956354 8.749045013375593)"><path d="M1.79 9.22 C1.42 11.24, -1.28 15.08, -2.41 16.26 M1.48 8.81 C0.85 10.57, 0.24 13.29, -1.32 16.91" stroke="#000000" stroke-width="1" fill="none"></path></g></g><g transform="translate(10 16.5) rotate(0 141 15.1264367816092)"><text x="0" y="12.126436781609199" font-family="Cascadia, Segoe UI Emoji" font-size="12.60536398467432px" fill="#000000" text-anchor="start" style="white-space: pre;" direction="ltr">POST &lt;source&gt;/brapi/v2/search/pedigree</text><text x="0" y="27.252873563218397" font-family="Cascadia, Segoe UI Emoji" font-size="12.60536398467432px" fill="#000000" text-anchor="start" style="white-space: pre;" direction="ltr"></text></g><g transform="translate(273.5 98.5) rotate(0 130.5 14)"><text x="0" y="11" font-family="Cascadia, Segoe UI Emoji" font-size="11.666666666666657px" fill="#000000" text-anchor="start" style="white-space: pre;" direction="ltr">POST &lt;target&gt;/brapi/v2/search/pedigree</text><text x="0" y="25" font-family="Cascadia, Segoe UI Emoji" font-size="11.666666666666657px" fill="#000000" text-anchor="start" style="white-space: pre;" direction="ltr"></text></g><g transform="translate(572 10) rotate(0 75.5 10.093582887700538)"><text x="0" y="14.187165775401077" font-family="Virgil, Segoe UI Emoji" font-size="16.149732620320854px" fill="#2b8a3e" text-anchor="start" style="white-space: pre;" direction="ltr">brapi-sync matching</text></g><g transform="translate(575 116.5) rotate(0 88.5 24)"><text x="0" y="19" font-family="Cascadia, Segoe UI Emoji" font-size="20px" fill="#000000" text-anchor="start" style="white-space: pre;" direction="ltr">post /germplasm</text><text x="0" y="43" font-family="Cascadia, Segoe UI Emoji" font-size="20px" fill="#000000" text-anchor="start" style="white-space: pre;" direction="ltr">put /pedigree</text></g><g stroke-linecap="round"><g transform="translate(544.1057608623507 94.53669578133764) rotate(0 11.00247929151783 -31.17114492981467)"><path d="M0.44 0.6 C3.78 -9.7, 17.05 -50.62, 20.4 -61.12 M-0.78 -0.13 C2.91 -10.84, 19.4 -52.73, 22.79 -62.94" stroke="#000000" stroke-width="1" fill="none"></path></g><g transform="translate(544.1057608623507 94.53669578133764) rotate(0 11.00247929151783 -31.17114492981467)"><path d="M23.71 -33.97 C23.52 -43.74, 21.44 -53.64, 24.12 -64.78 M22.59 -32.28 C22.4 -41.86, 22.54 -50.83, 21.88 -63.58" stroke="#000000" stroke-width="1" fill="none"></path></g><g transform="translate(544.1057608623507 94.53669578133764) rotate(0 11.00247929151783 -31.17114492981467)"><path d="M4.45 -41.03 C10.72 -48.52, 15.08 -56.06, 24.12 -64.78 M3.32 -39.35 C8.8 -46.93, 14.59 -53.83, 21.88 -63.58" stroke="#000000" stroke-width="1" fill="none"></path></g></g><g stroke-linecap="round"><g transform="translate(657.2058458494662 36.5) rotate(0 1.7078098137226334 38.07207873284817)"><path d="M-1.05 -0.18 C-0.48 12.6, 3.48 63.34, 4.46 75.95 M0.6 -1.32 C0.87 11.72, 2.68 64.49, 3.25 77.47" stroke="#000000" stroke-width="1" fill="none"></path></g><g transform="translate(657.2058458494662 36.5) rotate(0 1.7078098137226334 38.07207873284817)"><path d="M-8.38 48.84 C-3.92 60.36, -0.31 69.9, 4.89 79.25 M-8.34 49.67 C-5.98 55.49, -3.81 62.02, 3.09 76.97" stroke="#000000" stroke-width="1" fill="none"></path></g><g transform="translate(657.2058458494662 36.5) rotate(0 1.7078098137226334 38.07207873284817)"><path d="M12.13 48.06 C8.61 59.71, 4.24 69.55, 4.89 79.25 M12.17 48.89 C9.86 54.86, 7.37 61.57, 3.09 76.97" stroke="#000000" stroke-width="1" fill="none"></path></g></g><g stroke-linecap="round"><g transform="translate(230.42486531833595 60.5) rotate(0 24.14215816090251 16.93692992839962)"><path d="M0.63 1.08 C8.72 6.79, 40.51 27.79, 48.78 33.28 M-0.5 0.6 C7.36 6.02, 39.15 26.04, 47.55 31.3" stroke="#000000" stroke-width="1" fill="none"></path></g><g transform="translate(230.42486531833595 60.5) rotate(0 24.14215816090251 16.93692992839962)"><path d="M20.35 24.16 C28.33 28.43, 38.88 28.67, 47.37 30.07 M17.86 24.33 C26.24 26.47, 33.07 28.29, 47 31.05" stroke="#000000" stroke-width="1" fill="none"></path></g><g transform="translate(230.42486531833595 60.5) rotate(0 24.14215816090251 16.93692992839962)"><path d="M31.15 6.98 C35.5 16.86, 42.55 22.65, 47.37 30.07 M28.67 7.15 C34.48 13.36, 38.74 19.28, 47 31.05" stroke="#000000" stroke-width="1" fill="none"></path></g></g></svg>